<?xml version="1.0" encoding="iso-8859-1"?>
<!-- Generator: Adobe Illustrator 19.0.0, SVG Export Plug-In . SVG Version: 6.00 Build 0)  -->
<svg version="1.1" id="Capa_1" xmlns="http://www.w3.org/2000/svg" xmlns:xlink="http://www.w3.org/1999/xlink" x="0px" y="0px"
	 viewBox="0 0 512 512" style="enable-background:new 0 0 512 512;" xml:space="preserve">
<g>
	<g>
		<path d="M145.754,244.779c-44.366,0-80.461,36.095-80.461,80.461c0,44.366,36.095,80.461,80.461,80.461
			c44.366,0,80.461-36.095,80.461-80.461C226.215,280.874,190.12,244.779,145.754,244.779z M145.754,385.7
			c-33.339,0-60.461-27.123-60.461-60.461s27.123-60.461,60.461-60.461c33.338,0,60.461,27.123,60.461,60.461
			S179.093,385.7,145.754,385.7z"/>
	</g>
</g>
<g>
	<g>
		<path d="M145.754,284.563c-22.429,0-40.676,18.247-40.676,40.676c0,22.429,18.247,40.676,40.676,40.676
			c22.429,0,40.676-18.247,40.676-40.676C186.43,302.81,168.183,284.563,145.754,284.563z M145.754,345.916
			c-11.401,0-20.676-9.275-20.676-20.676s9.275-20.676,20.676-20.676s20.676,9.274,20.676,20.676
			C166.43,336.641,157.155,345.916,145.754,345.916z"/>
	</g>
</g>
<g>
	<g>
		<path d="M366.246,244.779c-44.366,0-80.461,36.095-80.461,80.461c0,44.366,36.095,80.461,80.461,80.461
			c44.366,0,80.461-36.095,80.461-80.461C446.707,280.874,410.612,244.779,366.246,244.779z M366.246,385.7
			c-33.338,0-60.461-27.123-60.461-60.461s27.123-60.461,60.461-60.461s60.461,27.123,60.461,60.461S399.584,385.7,366.246,385.7z"
			/>
	</g>
</g>
<g>
	<g>
		<path d="M366.246,284.563c-22.429,0-40.676,18.247-40.676,40.676c0,22.429,18.247,40.676,40.676,40.676
			c22.429,0,40.676-18.247,40.676-40.676C406.922,302.81,388.675,284.563,366.246,284.563z M366.246,345.916
			c-11.401,0-20.676-9.275-20.676-20.676s9.276-20.676,20.676-20.676c11.401,0,20.676,9.274,20.676,20.676
			C386.922,336.641,377.646,345.916,366.246,345.916z"/>
	</g>
</g>
<g>
	<g>
		<path d="M375.377,46.337c-3.102-1.799-6.93-1.799-10.033,0.001c-10.02,5.812-24.131,29.554-24.131,64.139
			s14.111,58.327,24.131,64.139c1.552,0.9,3.285,1.35,5.018,1.35c1.733,0,3.465-0.45,5.015-1.348
			c10.022-5.809,24.135-29.55,24.135-64.14C399.512,75.887,385.399,52.147,375.377,46.337z M370.363,150.399
			c-4.156-7.413-9.149-20.647-9.149-39.922s4.993-32.509,9.149-39.922c4.157,7.412,9.15,20.646,9.149,39.922
			C379.512,129.753,374.519,142.987,370.363,150.399z"/>
	</g>
</g>
<g>
	<g>
		<path d="M434.059,463.8c-0.12-0.64-0.319-1.27-0.569-1.87c-0.25-0.61-0.561-1.19-0.921-1.73c-0.359-0.55-0.779-1.06-1.239-1.52
			c-0.46-0.46-0.971-0.88-1.521-1.24c-0.54-0.36-1.12-0.67-1.729-0.92c-0.6-0.25-1.23-0.44-1.87-0.57c-1.29-0.26-2.62-0.26-3.9,0
			c-0.64,0.13-1.27,0.32-1.88,0.57c-0.6,0.25-1.18,0.56-1.72,0.92c-0.55,0.36-1.061,0.78-1.521,1.24c-0.46,0.46-0.88,0.97-1.25,1.52
			c-0.359,0.54-0.67,1.12-0.92,1.73c-0.25,0.6-0.439,1.23-0.569,1.87c-0.131,0.64-0.19,1.3-0.19,1.95c0,0.65,0.059,1.31,0.19,1.96
			c0.13,0.63,0.319,1.26,0.569,1.87c0.25,0.6,0.561,1.18,0.92,1.72c0.37,0.55,0.79,1.06,1.25,1.52c0.46,0.46,0.971,0.88,1.521,1.25
			c0.54,0.36,1.12,0.67,1.72,0.92c0.61,0.25,1.24,0.44,1.88,0.57s1.3,0.19,1.95,0.19c0.65,0,1.309-0.06,1.95-0.19
			c0.64-0.13,1.269-0.32,1.87-0.57c0.609-0.25,1.189-0.56,1.729-0.92c0.55-0.37,1.061-0.79,1.521-1.25
			c0.46-0.46,0.88-0.97,1.239-1.52c0.361-0.54,0.671-1.12,0.921-1.72c0.25-0.61,0.449-1.24,0.569-1.87c0.13-0.65,0.2-1.31,0.2-1.96
			S434.189,464.44,434.059,463.8z"/>
	</g>
</g>
<g>
	<g>
		<path d="M509.956,423.447c-1.892-2.484-4.834-3.942-7.956-3.942h-61.057c28.209-22.38,45.549-56.827,45.549-94.266
			c0-53.872-35.611-99.583-84.529-114.831c8.121-5.693,15.523-13.645,21.872-23.645c13.032-20.528,20.21-47.62,20.21-76.286
			c0-28.667-7.178-55.759-20.21-76.286c-13.461-21.203-31.652-33.198-51.412-33.978C371.758,0.074,371.07,0,370.363,0H141.637
			c-0.087,0-0.174,0.001-0.26,0.003c-0.034,0.001-0.068,0.003-0.102,0.004c-0.053,0.002-0.106,0.004-0.159,0.006
			c-0.033,0.002-0.066,0.004-0.1,0.006c-0.053,0.003-0.105,0.006-0.158,0.01c-0.036,0.003-0.072,0.006-0.109,0.01
			c-0.049,0.004-0.098,0.008-0.147,0.013c-0.035,0.004-0.071,0.008-0.106,0.012c-0.05,0.006-0.1,0.011-0.149,0.017
			c-0.038,0.005-0.075,0.01-0.112,0.016c-0.046,0.006-0.092,0.012-0.137,0.02c-0.04,0.006-0.081,0.013-0.121,0.02
			c-0.043,0.007-0.087,0.014-0.13,0.022c-0.04,0.007-0.079,0.015-0.119,0.023c-0.043,0.008-0.085,0.016-0.128,0.025
			c-0.008,0.002-0.016,0.003-0.023,0.005c-19.761,0.78-37.951,12.776-51.412,33.979c-13.032,20.527-20.209,47.62-20.209,76.286
			c0,28.667,7.177,55.759,20.209,76.286c6.349,10.001,13.75,17.952,21.872,23.646c-48.918,15.248-84.529,60.959-84.529,114.831
			c0,37.439,17.34,71.886,45.549,94.266H10c-3.122,0-6.065,1.458-7.956,3.942c-1.891,2.484-2.514,5.708-1.684,8.718l8.522,30.888
			C16.834,491.872,43.267,512,73.164,512h365.673c29.896,0,56.329-20.128,64.28-48.947l8.522-30.888
			C512.47,429.155,511.848,425.931,509.956,423.447z M466.492,325.239c0,42.242-26.475,79.917-66.052,94.266h-68.389
			C292.475,405.156,266,367.481,266,325.239c0-55.276,44.97-100.246,100.246-100.246S466.492,269.963,466.492,325.239z M256,373.264
			c7.864,18.047,20.07,33.961,35.549,46.241h-71.098C235.929,407.225,248.135,391.312,256,373.264z M256,277.236
			c-10.364-23.711-28.162-43.46-50.429-56.282h100.858C284.161,233.776,266.364,253.525,256,277.236z M370.363,20.172
			c29.099,0,53.682,41.354,53.682,90.305c0,48.95-24.583,90.305-53.682,90.305s-53.682-41.354-53.682-90.305
			S341.264,20.172,370.363,20.172z M223.884,20.172c0.633,0,1.252-0.059,1.852-0.172h102.132c-3.924,4.129-7.6,8.87-10.978,14.191
			c-13.032,20.527-20.209,47.62-20.209,76.286c0,28.667,7.177,55.759,20.209,76.286c3.378,5.321,7.054,10.062,10.978,14.191H225.736
			c-0.6-0.113-1.219-0.172-1.852-0.172c-29.099,0-53.682-41.354-53.682-90.305S194.785,20.172,223.884,20.172z M87.955,110.477
			c0-48.951,24.583-90.305,53.682-90.305c0.238,0,0.474-0.008,0.707-0.025c0.389-0.027,0.773-0.077,1.149-0.147h37.897
			c-3.924,4.129-7.599,8.87-10.977,14.191c-13.032,20.527-20.21,47.62-20.21,76.286c0,28.667,7.177,55.759,20.21,76.286
			c3.378,5.321,7.053,10.062,10.977,14.191h-37.897c-0.376-0.07-0.759-0.12-1.149-0.147c-0.234-0.016-0.469-0.025-0.707-0.025
			C112.538,200.782,87.955,159.427,87.955,110.477z M45.508,325.239c0-55.276,44.97-100.246,100.246-100.246
			S246,269.963,246,325.239c0,42.242-26.474,79.917-66.052,94.266H111.56C71.982,405.156,45.508,367.481,45.508,325.239z
			 M483.838,457.733C478.271,477.909,459.766,492,438.837,492H73.164c-13.876,0-26.686-6.194-35.367-16.248h349.517
			c5.522,0,10-4.477,10-10s-4.478-10-10-10H27.616l-4.483-16.247h465.734L483.838,457.733z"/>
	</g>
</g>
<g>
</g>
<g>
</g>
<g>
</g>
<g>
</g>
<g>
</g>
<g>
</g>
<g>
</g>
<g>
</g>
<g>
</g>
<g>
</g>
<g>
</g>
<g>
</g>
<g>
</g>
<g>
</g>
<g>
</g>
</svg>
