<?xml version="1.0" encoding="iso-8859-1"?>
<!-- Generator: Adobe Illustrator 21.0.0, SVG Export Plug-In . SVG Version: 6.00 Build 0)  -->
<svg xmlns="http://www.w3.org/2000/svg" xmlns:xlink="http://www.w3.org/1999/xlink" version="1.1" id="Capa_1" x="0px" y="0px" viewBox="0 0 512 512" style="enable-background:new 0 0 512 512;" xml:space="preserve" width="512" height="512">
<path d="M481.426,251.888c0,0-173.742-159.488-196.239-180.134c-5.425-4.98-13.664-5.284-19.442-0.717l-3.367,2.661l-36.305-36.304  C223.261,34.58,219.445,33,215.467,33H173.08c-5.266-19.004-22.705-33-43.363-33S91.621,13.996,86.355,33H49.717  c-8.284,0-15,6.716-15,15s6.716,15,15,15h38.769c4.971,11.343,14.485,20.254,26.231,24.42v10.666  c-50.263,7.293-89,50.662-89,102.914v266c0,24.813,20.187,45,45,45h118c24.813,0,45-20.187,45-45V201  c0-52.252-38.737-95.621-89-102.914V87.42c11.746-4.166,21.26-13.077,26.231-24.42h38.306l29.425,29.425l-2.78,2.197  c-5.78,4.566-7.388,12.655-3.796,19.086c21.645,38.74,116.435,208.47,129.897,232.559c2.143,3.836,5.84,6.646,10.17,7.395  c3.049,0.527,9.538-0.635,12.224-2.943l96.188-76.01c3.448-2.724,5.528-6.824,5.69-11.215  C486.435,259.102,484.663,254.86,481.426,251.888z M203.717,400.5h-38v-172h38V400.5z M203.654,198.5h-52.937  c-8.284,0-15,6.716-15,15v202c0,8.284,6.716,15,15,15h53V467c0,8.271-6.729,15-15,15h-118c-8.271,0-15-6.729-15-15V201  c0-40.804,33.196-74,74-74C169.682,127,202.328,158.851,203.654,198.5z M129.717,60c-8.271,0-15-6.729-15-15s6.729-15,15-15  s15,6.729,15,15S137.988,60,129.717,60z M379.604,316.267c-10.598-18.969-95.507-171.007-115.076-206.033l9.79-7.736  c19.358,17.766,173.852,159.586,173.852,159.586L379.604,316.267z"/>















</svg>
