<?xml version="1.0" encoding="iso-8859-1"?>
<!-- Generator: Adobe Illustrator 21.0.0, SVG Export Plug-In . SVG Version: 6.00 Build 0)  -->
<svg xmlns="http://www.w3.org/2000/svg" xmlns:xlink="http://www.w3.org/1999/xlink" version="1.1" id="Capa_1" x="0px" y="0px" viewBox="0 0 511 511" style="enable-background:new 0 0 511 511;" xml:space="preserve" width="512" height="512">
<g>
	<g>
		<path d="M436.166,74.834C387.908,26.576,323.747,0,255.5,0S123.092,26.576,74.834,74.834S0,187.253,0,255.5    s26.576,132.408,74.834,180.666S187.253,511,255.5,511s132.408-26.576,180.666-74.834S511,323.747,511,255.5    S484.424,123.092,436.166,74.834z M255.5,496C122.888,496,15,388.112,15,255.5S122.888,15,255.5,15S496,122.888,496,255.5    S388.112,496,255.5,496z"/>
		<path d="M215.5,255h72c26.191,0,47.5-21.309,47.5-47.5S313.691,160,287.5,160h-72c-4.143,0-7.5,3.357-7.5,7.5v80    C208,251.643,211.357,255,215.5,255z M223,175h64.5c17.921,0,32.5,14.579,32.5,32.5S305.421,240,287.5,240H223V175z"/>
		<path d="M287.5,112h-96c-17.369,0-31.5,14.131-31.5,31.5v179.823c0,4.143,3.357,7.5,7.5,7.5s7.5-3.357,7.5-7.5V143.5    c0-9.098,7.402-16.5,16.5-16.5h96c44.388,0,80.5,36.112,80.5,80.5S331.888,288,287.5,288h-72c-4.143,0-7.5,3.357-7.5,7.5V392h-33    v-33.383c0-4.143-3.357-7.5-7.5-7.5s-7.5,3.357-7.5,7.5V399.5c0,4.143,3.357,7.5,7.5,7.5h48c4.143,0,7.5-3.357,7.5-7.5V303h64.5    c52.659,0,95.5-42.841,95.5-95.5S340.159,112,287.5,112z"/>
	</g>
</g>















</svg>
