<svg height="512pt" viewBox="0 -63 512 512" width="512pt" xmlns="http://www.w3.org/2000/svg"><path d="m512 204.496094c0-15.871094-12.910156-28.78125-28.78125-28.78125h-27.265625c-4.183594 0-7.574219 3.390625-7.574219 7.574218 0 4.183594 3.390625 7.574219 7.574219 7.574219h27.265625c7.519531 0 13.632812 6.117188 13.632812 13.632813s-6.113281 13.632812-13.632812 13.632812h-90.453125c-49.652344 0-99.472656-6.335937-147.75-18.625-.046875-.011718-.089844-.019531-.132813-.03125-6.265624-1.597656-12.496093-3.304687-18.707031-5.097656-31.039062-8.976562-61.339843-20.425781-90.429687-34.261719l-50.964844-24.242187c-9.089844-4.324219-19.214844-6.609375-29.28125-6.609375h-26.71875c-7.515625 0-13.632812-6.117188-13.632812-13.632813s6.117187-13.632812 13.632812-13.632812h26.71875c7.828125 0 15.703125 1.777344 22.773438 5.140625l50.964843 24.246093c81.8125 38.914063 172.9375 59.480469 263.53125 59.480469h27.839844c4.179687 0 7.574219-3.390625 7.574219-7.574219 0-4.183593-3.394532-7.574218-7.574219-7.574218h-27.839844c-88.355469 0-177.234375-20.058594-257.023437-58.015625l-50.964844-24.242188c-9.089844-4.324219-19.214844-6.609375-29.28125-6.609375h-26.71875c-15.871094 0-28.78125 12.910156-28.78125 28.78125s12.910156 28.78125 28.78125 28.78125h26.71875c7.828125 0 15.703125 1.777344 22.773438 5.140625l50.964843 24.246094c53.6875 25.535156 111.390625 43.171875 170.316407 52.28125 30.867187 4.769531 62.070312 7.199219 93.214843 7.199219h80.625l-18.082031 68.710937c-10.789062 41.003907-47.9375 69.640625-90.335938 69.640625h-176.035156c-65.679687 0-121.1875-47.023437-131.984375-111.808594l-14.8125-88.882812c-.6875-4.125-4.597656-6.910156-8.71875-6.226562-4.125.6875-6.914062 4.589843-6.226562 8.71875l14.816406 88.882812c5.789063 34.738281 23.777344 66.402344 50.644531 89.167969 26.871094 22.761719 61.066406 35.296875 96.28125 35.296875h176.035156c49.273438 0 92.445313-33.28125 104.984376-80.929688l19.265624-73.203125c12.996094-2.773437 22.773438-14.335937 22.773438-28.148437zm0 0"/><path d="m325.679688 136.332031c22.550781 0 40.898437-18.347656 40.898437-40.898437 0-22.550782-18.347656-40.902344-40.898437-40.902344-22.550782 0-40.898438 18.351562-40.898438 40.902344 0 22.550781 18.347656 40.898437 40.898438 40.898437zm0-66.652343c14.199218 0 25.75 11.550781 25.75 25.75 0 14.199218-11.550782 25.753906-25.75 25.753906-14.199219 0-25.75-11.554688-25.75-25.753906 0-14.199219 11.550781-25.75 25.75-25.75zm0 0"/><path d="m262.058594 55.542969c15.3125 0 27.769531-12.457031 27.769531-27.773438 0-15.3125-12.457031-27.769531-27.769531-27.769531s-27.769532 12.457031-27.769532 27.769531c0 15.316407 12.457032 27.773438 27.769532 27.773438zm0-40.394531c6.960937 0 12.625 5.660156 12.625 12.621093 0 6.960938-5.664063 12.625-12.625 12.625-6.960938 0-12.621094-5.664062-12.621094-12.625 0-6.960937 5.660156-12.621093 12.621094-12.621093zm0 0"/></svg>