<?xml version="1.0" encoding="iso-8859-1"?>
<!-- Generator: Adobe Illustrator 17.1.0, SVG Export Plug-In . SVG Version: 6.00 Build 0)  -->
<!DOCTYPE svg PUBLIC "-//W3C//DTD SVG 1.1//EN" "http://www.w3.org/Graphics/SVG/1.1/DTD/svg11.dtd">
<svg version="1.1" id="Capa_1" xmlns="http://www.w3.org/2000/svg" xmlns:xlink="http://www.w3.org/1999/xlink" x="0px" y="0px"
	 viewBox="0 0 376.4 376.4" style="enable-background:new 0 0 376.4 376.4;" xml:space="preserve">
<path id="XMLID_742_" d="M161.609,367.4c0,4.971-4.029,9-9,9c-24.035,0-32.023-16.752-38.443-30.213
	c-0.873-1.832-17.439-34.541-17.439-34.541c-35.118-69.021-72.584-145.788-72.584-183.179C24.142,57.631,81.773,0,152.609,0
	c30.646,0,60.322,10.97,83.562,30.889c22.983,19.699,38.326,46.912,43.202,76.627c0.806,4.904-2.519,9.533-7.424,10.338
	c-4.904,0.803-9.533-2.518-10.338-7.424C252.822,56.872,206.981,18,152.609,18C91.698,18,42.142,67.556,42.142,128.468
	c0,36.206,45.944,126.505,70.627,175.017c0,0,16.728,33.034,17.644,34.955c6.602,13.842,10.032,19.961,22.196,19.961
	C157.58,358.4,161.609,362.43,161.609,367.4z M152.609,82.064c25.587,0,46.403,20.816,46.403,46.403s-20.816,46.403-46.403,46.403
	s-46.404-20.816-46.404-46.403S127.023,82.064,152.609,82.064z M152.609,100.064c-15.662,0-28.404,12.741-28.404,28.403
	s12.742,28.403,28.404,28.403c15.662,0,28.403-12.741,28.403-28.403S168.271,100.064,152.609,100.064z M347.262,189.499
	l-94.104,167.16c-0.072,0.128-0.147,0.254-0.225,0.378c-7.558,12.011-20.866,19.363-34.924,19.363c-0.341,0-0.681-0.004-1.021-0.013
	c-13.77-0.35-25.549-7.474-32.316-19.548l-50.142-89.071c-0.002-0.005-0.005-0.01-0.008-0.015
	c-10.568-18.854-3.827-42.79,15.026-53.357c18.854-10.566,42.791-3.825,53.359,15.026l15.957,28.349l60.021-106.617
	c5.11-9.118,13.479-15.711,23.559-18.55c10.074-2.839,20.657-1.583,29.791,3.537C351.086,146.709,357.827,170.646,347.262,189.499z
	 M323.433,151.843c-4.939-2.769-10.661-3.448-16.111-1.912c-5.45,1.535-9.976,5.1-12.743,10.039l-67.872,120.563
	c-1.595,2.832-4.593,4.585-7.843,4.585c-3.251,0-6.248-1.753-7.843-4.585l-23.808-42.294c-5.724-10.211-18.669-13.856-28.865-8.142
	c-10.19,5.712-13.836,18.647-8.133,28.841l50.149,89.086c4.917,8.771,12.811,10.261,17.079,10.369
	c8.075,0.207,15.751-3.92,20.146-10.772l93.979-166.937C337.273,170.503,333.627,157.558,323.433,151.843z"/>
<g>
</g>
<g>
</g>
<g>
</g>
<g>
</g>
<g>
</g>
<g>
</g>
<g>
</g>
<g>
</g>
<g>
</g>
<g>
</g>
<g>
</g>
<g>
</g>
<g>
</g>
<g>
</g>
<g>
</g>
</svg>
