<?xml version="1.0" encoding="iso-8859-1"?>
<!-- Generator: Adobe Illustrator 19.0.0, SVG Export Plug-In . SVG Version: 6.00 Build 0)  -->
<svg version="1.1" id="Capa_1" xmlns="http://www.w3.org/2000/svg" xmlns:xlink="http://www.w3.org/1999/xlink" x="0px" y="0px"
	 viewBox="0 0 512 512" style="enable-background:new 0 0 512 512;" xml:space="preserve">
<g>
	<g>
		<path d="M331,265v157h120V265H331z M421,392h-60v-97h60V392z"/>
	</g>
</g>
<g>
	<g>
		<path d="M491.907,215.037C481.511,198.92,467.489,185.589,451,176.06V70h-45V30h45V0H271v30h105v40h-45v106.061
			c-16.489,9.528-30.511,22.86-40.907,38.977C277.602,234.401,271,256.865,271,280v232h240V280
			C511,256.865,504.398,234.401,491.907,215.037z M361,100h60v70.11h-60V100z M481,482H301V280c0-33.481,18.94-64.485,48.522-79.89
			h82.956C462.06,215.515,481,246.519,481,280V482z"/>
	</g>
</g>
<g>
	<g>
		<path d="M61,195v227h120V195H61z M151,392H91V225h60V392z"/>
	</g>
</g>
<g>
	<g>
		<path d="M221.907,145.037c-10.396-16.117-24.418-29.448-40.907-38.976V0H61v106.061c-16.489,9.528-30.511,22.86-40.907,38.977
			C7.602,164.401,1,186.865,1,210v302h240V210C241,186.865,234.398,164.401,221.907,145.037z M91,30h60v70.11H91V30z M211,482H31
			V210c0-33.481,18.94-64.485,48.522-79.89h82.956C192.06,145.515,211,176.519,211,210V482z"/>
	</g>
</g>
<g>
</g>
<g>
</g>
<g>
</g>
<g>
</g>
<g>
</g>
<g>
</g>
<g>
</g>
<g>
</g>
<g>
</g>
<g>
</g>
<g>
</g>
<g>
</g>
<g>
</g>
<g>
</g>
<g>
</g>
</svg>
